<svg version="1.1" id="Layer_1" xmlns="http://www.w3.org/2000/svg" x="0" y="0" width="552.386" height="482.792" xml:space="preserve"><style>.st0{fill:#08a8d6;fill-opacity:.75}.st1{fill:#fff}.st8{fill:#333}</style><path class="st0" d="M218.945 213.853h193.183v94.43H218.945z"/><path class="st1" d="M413.439 309.595H217.633v-97.053h195.806v97.053zm-193.183-2.623h190.56v-91.807h-190.56v91.807z"/><path class="st0" d="M199.273 194.181h193.183v94.43H199.273z"/><path class="st1" d="M393.768 289.923H197.961V192.87h195.806v97.053zM200.584 287.3h190.56v-91.807h-190.56V287.3z"/><path class="st0" d="M179.601 174.51h193.183v94.43H179.601z"/><path class="st1" d="M374.096 270.251H178.29v-97.053h195.806v97.053zm-193.183-2.623h190.56v-91.807h-190.56v91.807z"/><path class="st1" d="M196.752 214.713h2.091v5.983l5.66-5.983h2.584l-4.964 5.117 5.185 6.782h-2.55l-4.062-5.354-1.853 1.903v3.451h-2.091v-11.899zM214.125 214.628h1.938l5.235 11.984h-2.21l-1.207-2.873h-5.626l-1.225 2.873h-2.142l5.237-11.984zm2.993 7.259l-2.057-4.76-2.04 4.76h4.097zM224.394 214.713h8.855v1.904h-6.765v3.247h6v1.904h-6v4.845h-2.091v-11.9zM236.6 214.713h2.091v5.983l5.66-5.983h2.584l-4.964 5.117 5.185 6.782h-2.55l-4.062-5.354-1.853 1.903v3.451H236.6v-11.899zM253.973 214.628h1.938l5.235 11.984h-2.21l-1.207-2.873h-5.626l-1.225 2.873h-2.142l5.237-11.984zm2.992 7.259l-2.057-4.76-2.04 4.76h4.097zM269.869 220.697v-.034c0-3.382 2.532-6.153 6.137-6.153 2.192 0 3.519.765 4.657 1.853l-1.343 1.547c-.952-.884-1.972-1.479-3.332-1.479-2.261 0-3.927 1.87-3.927 4.199v.034c0 2.329 1.649 4.215 3.927 4.215 1.462 0 2.397-.578 3.417-1.529l1.343 1.359c-1.241 1.292-2.601 2.108-4.827 2.108-3.468-.001-6.052-2.704-6.052-6.12zM283.996 214.713h2.091v9.995h6.255v1.904h-8.346v-11.899zM295.045 221.563v-6.85h2.091v6.765c0 2.21 1.139 3.383 3.009 3.383 1.853 0 2.991-1.105 2.991-3.298v-6.85h2.091v6.749c0 3.552-2.006 5.337-5.116 5.337-3.094 0-5.066-1.785-5.066-5.236zM308.356 224.878l1.259-1.496c1.139.986 2.294 1.547 3.756 1.547 1.292 0 2.108-.612 2.108-1.496v-.034c0-.85-.477-1.309-2.686-1.819-2.533-.612-3.961-1.36-3.961-3.553v-.034c0-2.04 1.699-3.451 4.062-3.451 1.733 0 3.11.527 4.317 1.496l-1.122 1.581c-1.07-.799-2.142-1.224-3.229-1.224-1.224 0-1.938.629-1.938 1.411v.034c0 .918.544 1.326 2.839 1.87 2.516.612 3.808 1.513 3.808 3.484v.034c0 2.227-1.751 3.553-4.25 3.553-1.818.001-3.534-.628-4.963-1.903zM323.757 216.651h-3.773v-1.938h9.655v1.938h-3.773v9.961h-2.108v-9.961zM332.905 214.713h8.821v1.87h-6.73v3.094h5.966v1.87h-5.966v3.195h6.815v1.87h-8.906v-11.899zM345.348 214.713h5.303c1.496 0 2.669.442 3.434 1.19.629.646.986 1.53.986 2.566v.034c0 1.955-1.173 3.128-2.822 3.604l3.213 4.505h-2.481l-2.924-4.148h-2.617v4.148h-2.091v-11.899zm5.151 5.898c1.495 0 2.447-.781 2.447-1.988v-.034c0-1.275-.918-1.972-2.465-1.972h-3.042v3.994h3.06z"/><g><linearGradient id="SVGID_1_" gradientUnits="userSpaceOnUse" x1="234.423" y1="98.816" x2="317.963" y2="23.597"><stop offset="0" stop-color="#4abfac"/><stop offset="1" stop-color="#10b1d0"/></linearGradient><circle cx="276.193" cy="61.207" r="56.206" fill="url(#SVGID_1_)"/><linearGradient id="SVGID_2_" gradientUnits="userSpaceOnUse" x1="449.409" y1="98.816" x2="532.949" y2="23.597"><stop offset="0" stop-color="#4abfac"/><stop offset="1" stop-color="#10b1d0"/></linearGradient><circle cx="491.179" cy="61.207" r="56.206" fill="url(#SVGID_2_)"/><linearGradient id="SVGID_3_" gradientUnits="userSpaceOnUse" x1="19.437" y1="98.816" x2="102.977" y2="23.597"><stop offset="0" stop-color="#4abfac"/><stop offset="1" stop-color="#10b1d0"/></linearGradient><circle cx="61.207" cy="61.207" r="56.206" fill="url(#SVGID_3_)"/><path class="st1" d="M18.522 48.089h3.575c2.125 0 3.446 1.205 3.446 3.031v.026c0 2.033-1.632 3.096-3.627 3.096h-1.801v2.915h-1.593v-9.068zm3.445 4.716c1.205 0 1.957-.674 1.957-1.619v-.026c0-1.062-.764-1.619-1.957-1.619h-1.853v3.265h1.853zM27.98 48.089h4.042c1.14 0 2.034.337 2.617.907.479.492.751 1.166.751 1.956v.025c0 1.49-.894 2.384-2.15 2.747l2.448 3.433h-1.892l-2.228-3.161h-1.995v3.161H27.98v-9.068zm3.925 4.495c1.14 0 1.866-.596 1.866-1.516v-.025c0-.972-.7-1.503-1.879-1.503h-2.319v3.044h2.332zM37.749 52.65v-.026c0-2.552 1.969-4.689 4.754-4.689s4.729 2.111 4.729 4.664v.025c0 2.552-1.969 4.689-4.754 4.689-2.786 0-4.729-2.111-4.729-4.663zm7.812 0v-.026c0-1.762-1.283-3.226-3.083-3.226-1.801 0-3.057 1.438-3.057 3.2v.025c0 1.762 1.282 3.213 3.083 3.213s3.057-1.424 3.057-3.186zM49.966 48.089h3.381c2.85 0 4.819 1.956 4.819 4.509v.025c0 2.552-1.969 4.534-4.819 4.534h-3.381v-9.068zm1.594 1.452v6.166h1.788c1.904 0 3.148-1.282 3.148-3.057v-.026c0-1.774-1.244-3.083-3.148-3.083H51.56zM60.759 53.31v-5.221h1.594v5.156c0 1.684.868 2.578 2.293 2.578 1.412 0 2.28-.843 2.28-2.514v-5.221h1.593v5.144c0 2.707-1.528 4.067-3.899 4.067-2.358.001-3.861-1.359-3.861-3.989zM71.111 52.65v-.026c0-2.578 1.93-4.689 4.676-4.689 1.671 0 2.682.583 3.55 1.412l-1.023 1.179c-.726-.674-1.503-1.127-2.539-1.127-1.723 0-2.992 1.425-2.992 3.2v.025c0 1.774 1.256 3.213 2.992 3.213 1.114 0 1.827-.44 2.604-1.166l1.023 1.036c-.946.984-1.982 1.606-3.679 1.606-2.642 0-4.612-2.06-4.612-4.663zM81.878 48.089h6.723v1.425h-5.13v2.358h4.547v1.425h-4.547v2.436h5.195v1.425h-6.788v-9.069zM91.362 48.089h4.042c1.14 0 2.034.337 2.617.907.479.492.751 1.166.751 1.956v.025c0 1.49-.894 2.384-2.15 2.747l2.448 3.433h-1.891l-2.228-3.161h-1.995v3.161h-1.594v-9.068zm3.926 4.495c1.14 0 1.865-.596 1.865-1.516v-.025c0-.972-.7-1.503-1.878-1.503h-2.319v3.044h2.332zM50.607 63.573h1.477l3.99 9.133H54.39l-.92-2.189h-4.288l-.933 2.189h-1.632l3.99-9.133zm2.28 5.531l-1.567-3.627-1.555 3.627h3.122zM58.434 63.637h3.576c2.124 0 3.446 1.205 3.446 3.031v.026c0 2.033-1.632 3.096-3.627 3.096h-1.801v2.915h-1.593v-9.068zm3.445 4.716c1.205 0 1.956-.674 1.956-1.619v-.026c0-1.062-.764-1.619-1.956-1.619h-1.853v3.265h1.853zM67.892 63.637h3.576c2.124 0 3.446 1.205 3.446 3.031v.026c0 2.033-1.632 3.096-3.627 3.096h-1.801v2.915h-1.593v-9.068zm3.445 4.716c1.205 0 1.956-.674 1.956-1.619v-.026c0-1.062-.764-1.619-1.956-1.619h-1.853v3.265h1.853z"/><g><path class="st1" d="M233.508 48.089h3.575c2.125 0 3.446 1.205 3.446 3.031v.026c0 2.033-1.632 3.096-3.627 3.096h-1.801v2.915h-1.593v-9.068zm3.446 4.716c1.205 0 1.957-.674 1.957-1.619v-.026c0-1.062-.764-1.619-1.957-1.619h-1.853v3.265h1.853zM242.966 48.089h4.042c1.14 0 2.034.337 2.617.907.479.492.751 1.166.751 1.956v.025c0 1.49-.894 2.384-2.15 2.747l2.448 3.433h-1.892l-2.228-3.161h-1.995v3.161h-1.593v-9.068zm3.926 4.495c1.14 0 1.866-.596 1.866-1.516v-.025c0-.972-.7-1.503-1.879-1.503h-2.319v3.044h2.332zM252.735 52.65v-.026c0-2.552 1.969-4.689 4.754-4.689s4.729 2.111 4.729 4.664v.025c0 2.552-1.969 4.689-4.754 4.689-2.786 0-4.729-2.111-4.729-4.663zm7.812 0v-.026c0-1.762-1.283-3.226-3.083-3.226-1.801 0-3.057 1.438-3.057 3.2v.025c0 1.762 1.282 3.213 3.083 3.213s3.057-1.424 3.057-3.186zM264.953 48.089h3.381c2.85 0 4.819 1.956 4.819 4.509v.025c0 2.552-1.969 4.534-4.819 4.534h-3.381v-9.068zm1.593 1.452v6.166h1.788c1.904 0 3.148-1.282 3.148-3.057v-.026c0-1.774-1.244-3.083-3.148-3.083h-1.788zM275.746 53.31v-5.221h1.594v5.156c0 1.684.868 2.578 2.293 2.578 1.412 0 2.28-.843 2.28-2.514v-5.221h1.593v5.144c0 2.707-1.528 4.067-3.899 4.067-2.358.001-3.861-1.359-3.861-3.989zM286.098 52.65v-.026c0-2.578 1.93-4.689 4.676-4.689 1.671 0 2.682.583 3.55 1.412l-1.023 1.179c-.726-.674-1.503-1.127-2.539-1.127-1.723 0-2.992 1.425-2.992 3.2v.025c0 1.774 1.256 3.213 2.992 3.213 1.114 0 1.827-.44 2.604-1.166l1.023 1.036c-.946.984-1.982 1.606-3.679 1.606-2.643 0-4.612-2.06-4.612-4.663zM296.864 48.089h6.723v1.425h-5.13v2.358h4.547v1.425h-4.547v2.436h5.195v1.425h-6.788v-9.069zM306.348 48.089h4.042c1.14 0 2.034.337 2.617.907.479.492.751 1.166.751 1.956v.025c0 1.49-.894 2.384-2.15 2.747l2.448 3.433h-1.891l-2.228-3.161h-1.995v3.161h-1.594v-9.068zm3.926 4.495c1.14 0 1.865-.596 1.865-1.516v-.025c0-.972-.7-1.503-1.878-1.503h-2.319v3.044h2.332zM265.594 63.573h1.477l3.99 9.133h-1.684l-.92-2.189h-4.288l-.933 2.189h-1.632l3.99-9.133zm2.28 5.531l-1.567-3.627-1.555 3.627h3.122zM273.42 63.637h3.576c2.124 0 3.446 1.205 3.446 3.031v.026c0 2.033-1.632 3.096-3.627 3.096h-1.801v2.915h-1.593v-9.068zm3.446 4.716c1.205 0 1.956-.674 1.956-1.619v-.026c0-1.062-.764-1.619-1.956-1.619h-1.853v3.265h1.853zM282.878 63.637h3.576c2.124 0 3.446 1.205 3.446 3.031v.026c0 2.033-1.632 3.096-3.627 3.096h-1.801v2.915h-1.593v-9.068zm3.446 4.716c1.205 0 1.956-.674 1.956-1.619v-.026c0-1.062-.764-1.619-1.956-1.619h-1.853v3.265h1.853z"/></g><g><path class="st1" d="M448.494 48.089h3.576c2.125 0 3.446 1.205 3.446 3.031v.026c0 2.033-1.632 3.096-3.627 3.096h-1.801v2.915h-1.594v-9.068zm3.446 4.716c1.205 0 1.956-.674 1.956-1.619v-.026c0-1.062-.765-1.619-1.956-1.619h-1.853v3.265h1.853zM457.952 48.089h4.042c1.141 0 2.034.337 2.617.907.479.492.751 1.166.751 1.956v.025c0 1.49-.894 2.384-2.15 2.747l2.449 3.433h-1.891l-2.229-3.161h-1.995v3.161h-1.593v-9.068zm3.925 4.495c1.14 0 1.865-.596 1.865-1.516v-.025c0-.972-.699-1.503-1.878-1.503h-2.319v3.044h2.332zM467.721 52.65v-.026c0-2.552 1.969-4.689 4.754-4.689 2.785 0 4.728 2.111 4.728 4.664v.025c0 2.552-1.969 4.689-4.754 4.689s-4.728-2.111-4.728-4.663zm7.812 0v-.026c0-1.762-1.282-3.226-3.083-3.226s-3.058 1.438-3.058 3.2v.025c0 1.762 1.283 3.213 3.083 3.213 1.801 0 3.058-1.424 3.058-3.186zM479.939 48.089h3.381c2.85 0 4.819 1.956 4.819 4.509v.025c0 2.552-1.969 4.534-4.819 4.534h-3.381v-9.068zm1.593 1.452v6.166h1.788c1.904 0 3.148-1.282 3.148-3.057v-.026c0-1.774-1.244-3.083-3.148-3.083h-1.788zM490.731 53.31v-5.221h1.593v5.156c0 1.684.868 2.578 2.293 2.578 1.412 0 2.28-.843 2.28-2.514v-5.221h1.593v5.144c0 2.707-1.529 4.067-3.899 4.067-2.357.001-3.86-1.359-3.86-3.989zM501.083 52.65v-.026c0-2.578 1.93-4.689 4.677-4.689 1.671 0 2.682.583 3.549 1.412l-1.023 1.179c-.725-.674-1.502-1.127-2.539-1.127-1.723 0-2.993 1.425-2.993 3.2v.025c0 1.774 1.257 3.213 2.993 3.213 1.114 0 1.827-.44 2.604-1.166l1.023 1.036c-.946.984-1.982 1.606-3.679 1.606-2.643 0-4.612-2.06-4.612-4.663zM511.85 48.089h6.724v1.425h-5.13v2.358h4.547v1.425h-4.547v2.436h5.195v1.425h-6.788v-9.069zM521.334 48.089h4.042c1.14 0 2.034.337 2.617.907.479.492.751 1.166.751 1.956v.025c0 1.49-.894 2.384-2.15 2.747l2.449 3.433h-1.892l-2.229-3.161h-1.995v3.161h-1.593v-9.068zm3.925 4.495c1.14 0 1.866-.596 1.866-1.516v-.025c0-.972-.7-1.503-1.878-1.503h-2.319v3.044h2.331zM480.58 63.573h1.477l3.99 9.133h-1.684l-.919-2.189h-4.288l-.933 2.189h-1.633l3.99-9.133zm2.28 5.531l-1.567-3.627-1.555 3.627h3.122zM488.406 63.637h3.575c2.125 0 3.446 1.205 3.446 3.031v.026c0 2.033-1.632 3.096-3.627 3.096h-1.801v2.915h-1.593v-9.068zm3.446 4.716c1.205 0 1.957-.674 1.957-1.619v-.026c0-1.062-.765-1.619-1.957-1.619h-1.853v3.265h1.853zM497.864 63.637h3.575c2.125 0 3.446 1.205 3.446 3.031v.026c0 2.033-1.632 3.096-3.627 3.096h-1.801v2.915h-1.593v-9.068zm3.446 4.716c1.205 0 1.957-.674 1.957-1.619v-.026c0-1.062-.765-1.619-1.957-1.619h-1.853v3.265h1.853z"/></g></g><g><linearGradient id="SVGID_4_" gradientUnits="userSpaceOnUse" x1="234.423" y1="459.196" x2="317.963" y2="383.976"><stop offset="0" stop-color="#4abfac"/><stop offset="1" stop-color="#10b1d0"/></linearGradient><circle cx="276.193" cy="421.586" r="56.206" fill="url(#SVGID_4_)"/><linearGradient id="SVGID_5_" gradientUnits="userSpaceOnUse" x1="449.409" y1="459.196" x2="532.949" y2="383.976"><stop offset="0" stop-color="#4abfac"/><stop offset="1" stop-color="#10b1d0"/></linearGradient><circle cx="491.179" cy="421.586" r="56.206" fill="url(#SVGID_5_)"/><linearGradient id="SVGID_6_" gradientUnits="userSpaceOnUse" x1="19.437" y1="459.196" x2="102.977" y2="383.976"><stop offset="0" stop-color="#4abfac"/><stop offset="1" stop-color="#10b1d0"/></linearGradient><circle cx="61.207" cy="421.586" r="56.206" fill="url(#SVGID_6_)"/><path class="st1" d="M17.44 413.029v-.026c0-2.578 1.93-4.689 4.677-4.689 1.671 0 2.682.583 3.549 1.412l-1.023 1.179c-.725-.674-1.502-1.127-2.539-1.127-1.723 0-2.993 1.425-2.993 3.2v.025c0 1.774 1.257 3.213 2.993 3.213 1.114 0 1.827-.44 2.604-1.166l1.023 1.036c-.946.984-1.982 1.606-3.679 1.606-2.643 0-4.612-2.059-4.612-4.663zM27.546 413.029v-.026c0-2.552 1.969-4.689 4.754-4.689s4.729 2.111 4.729 4.664v.025c0 2.552-1.969 4.689-4.754 4.689-2.786 0-4.729-2.111-4.729-4.663zm7.811 0v-.026c0-1.762-1.283-3.226-3.083-3.226-1.801 0-3.057 1.438-3.057 3.2v.025c0 1.762 1.282 3.213 3.083 3.213s3.057-1.424 3.057-3.186zM39.764 408.469h1.477l4.857 6.271v-6.271h1.568v9.068h-1.334l-5-6.451v6.451h-1.567v-9.068zM50.194 416.216l.958-1.14c.868.751 1.749 1.179 2.863 1.179.984 0 1.606-.467 1.606-1.141v-.025c0-.647-.363-.998-2.047-1.387-1.93-.466-3.019-1.036-3.019-2.707v-.026c0-1.555 1.296-2.63 3.096-2.63 1.322 0 2.371.402 3.291 1.141l-.855 1.204c-.816-.608-1.632-.933-2.461-.933-.933 0-1.477.479-1.477 1.075v.026c0 .699.414 1.011 2.163 1.425 1.917.467 2.902 1.153 2.902 2.656v.025c0 1.697-1.335 2.708-3.239 2.708a5.576 5.576 0 0 1-3.781-1.45zM59.755 413.689v-5.221h1.594v5.156c0 1.684.868 2.578 2.293 2.578 1.412 0 2.28-.843 2.28-2.514v-5.221h1.593v5.144c0 2.707-1.528 4.067-3.899 4.067-2.358.002-3.861-1.359-3.861-3.989zM70.509 408.469h1.697l2.759 4.288 2.759-4.288h1.697v9.068h-1.593v-6.503l-2.863 4.274h-.052l-2.837-4.249v6.478h-1.567v-9.068zM82.558 408.469h6.724v1.425h-5.13v2.358h4.547v1.425h-4.547v2.436h5.194v1.425h-6.788v-9.069zM92.042 408.469h4.042c1.14 0 2.034.337 2.617.907.479.492.751 1.166.751 1.956v.025c0 1.49-.894 2.384-2.15 2.747l2.448 3.433h-1.892l-2.228-3.161h-1.995v3.161h-1.593v-9.068zm3.926 4.495c1.14 0 1.866-.596 1.866-1.516v-.025c0-.972-.7-1.503-1.879-1.503h-2.319v3.044h2.332zM50.607 423.952h1.477l3.99 9.133H54.39l-.92-2.189h-4.288l-.933 2.189h-1.632l3.99-9.133zm2.28 5.531l-1.567-3.627-1.555 3.627h3.122zM58.434 424.017h3.576c2.124 0 3.446 1.205 3.446 3.031v.026c0 2.033-1.632 3.096-3.627 3.096h-1.801v2.915h-1.593v-9.068zm3.445 4.715c1.205 0 1.956-.674 1.956-1.619v-.026c0-1.062-.764-1.619-1.956-1.619h-1.853v3.265h1.853zM67.892 424.017h3.576c2.124 0 3.446 1.205 3.446 3.031v.026c0 2.033-1.632 3.096-3.627 3.096h-1.801v2.915h-1.593v-9.068zm3.445 4.715c1.205 0 1.956-.674 1.956-1.619v-.026c0-1.062-.764-1.619-1.956-1.619h-1.853v3.265h1.853z"/><g><path class="st1" d="M232.426 413.029v-.026c0-2.578 1.93-4.689 4.677-4.689 1.671 0 2.682.583 3.549 1.412l-1.023 1.179c-.725-.674-1.502-1.127-2.539-1.127-1.723 0-2.993 1.425-2.993 3.2v.025c0 1.774 1.257 3.213 2.993 3.213 1.114 0 1.827-.44 2.604-1.166l1.023 1.036c-.946.984-1.982 1.606-3.679 1.606-2.643 0-4.612-2.059-4.612-4.663zM242.532 413.029v-.026c0-2.552 1.969-4.689 4.754-4.689s4.729 2.111 4.729 4.664v.025c0 2.552-1.969 4.689-4.754 4.689-2.786 0-4.729-2.111-4.729-4.663zm7.812 0v-.026c0-1.762-1.283-3.226-3.083-3.226-1.801 0-3.057 1.438-3.057 3.2v.025c0 1.762 1.282 3.213 3.083 3.213s3.057-1.424 3.057-3.186zM254.75 408.469h1.477l4.857 6.271v-6.271h1.568v9.068h-1.334l-5-6.451v6.451h-1.567v-9.068zM265.18 416.216l.958-1.14c.868.751 1.749 1.179 2.863 1.179.984 0 1.606-.467 1.606-1.141v-.025c0-.647-.363-.998-2.047-1.387-1.93-.466-3.019-1.036-3.019-2.707v-.026c0-1.555 1.296-2.63 3.096-2.63 1.322 0 2.371.402 3.291 1.141l-.855 1.204c-.816-.608-1.632-.933-2.461-.933-.933 0-1.477.479-1.477 1.075v.026c0 .699.414 1.011 2.163 1.425 1.917.467 2.902 1.153 2.902 2.656v.025c0 1.697-1.335 2.708-3.239 2.708a5.577 5.577 0 0 1-3.781-1.45zM274.742 413.689v-5.221h1.594v5.156c0 1.684.868 2.578 2.293 2.578 1.412 0 2.28-.843 2.28-2.514v-5.221h1.593v5.144c0 2.707-1.528 4.067-3.899 4.067-2.358.002-3.861-1.359-3.861-3.989zM285.496 408.469h1.697l2.759 4.288 2.759-4.288h1.697v9.068h-1.593v-6.503l-2.863 4.274h-.052l-2.837-4.249v6.478h-1.567v-9.068zM297.544 408.469h6.724v1.425h-5.13v2.358h4.547v1.425h-4.547v2.436h5.194v1.425h-6.788v-9.069zM307.029 408.469h4.042c1.14 0 2.034.337 2.617.907.479.492.751 1.166.751 1.956v.025c0 1.49-.894 2.384-2.15 2.747l2.448 3.433h-1.892l-2.228-3.161h-1.995v3.161h-1.593v-9.068zm3.925 4.495c1.14 0 1.866-.596 1.866-1.516v-.025c0-.972-.7-1.503-1.879-1.503h-2.319v3.044h2.332zM265.594 423.952h1.477l3.99 9.133h-1.684l-.92-2.189h-4.288l-.933 2.189h-1.632l3.99-9.133zm2.28 5.531l-1.567-3.627-1.555 3.627h3.122zM273.42 424.017h3.576c2.124 0 3.446 1.205 3.446 3.031v.026c0 2.033-1.632 3.096-3.627 3.096h-1.801v2.915h-1.593v-9.068zm3.446 4.715c1.205 0 1.956-.674 1.956-1.619v-.026c0-1.062-.764-1.619-1.956-1.619h-1.853v3.265h1.853zM282.878 424.017h3.576c2.124 0 3.446 1.205 3.446 3.031v.026c0 2.033-1.632 3.096-3.627 3.096h-1.801v2.915h-1.593v-9.068zm3.446 4.715c1.205 0 1.956-.674 1.956-1.619v-.026c0-1.062-.764-1.619-1.956-1.619h-1.853v3.265h1.853z"/></g><g><path class="st1" d="M447.412 413.029v-.026c0-2.578 1.93-4.689 4.676-4.689 1.671 0 2.682.583 3.55 1.412l-1.023 1.179c-.726-.674-1.503-1.127-2.539-1.127-1.723 0-2.992 1.425-2.992 3.2v.025c0 1.774 1.256 3.213 2.992 3.213 1.114 0 1.827-.44 2.604-1.166l1.023 1.036c-.946.984-1.982 1.606-3.679 1.606-2.643 0-4.612-2.059-4.612-4.663zM457.518 413.029v-.026c0-2.552 1.969-4.689 4.754-4.689 2.785 0 4.728 2.111 4.728 4.664v.025c0 2.552-1.969 4.689-4.754 4.689s-4.728-2.111-4.728-4.663zm7.812 0v-.026c0-1.762-1.282-3.226-3.083-3.226s-3.058 1.438-3.058 3.2v.025c0 1.762 1.283 3.213 3.083 3.213 1.801.001 3.058-1.424 3.058-3.186zM469.736 408.469h1.477l4.858 6.271v-6.271h1.567v9.068h-1.334l-5-6.451v6.451h-1.567v-9.068zM480.166 416.216l.959-1.14c.868.751 1.749 1.179 2.863 1.179.985 0 1.606-.467 1.606-1.141v-.025c0-.647-.363-.998-2.047-1.387-1.93-.466-3.019-1.036-3.019-2.707v-.026c0-1.555 1.295-2.63 3.096-2.63 1.321 0 2.371.402 3.291 1.141l-.855 1.204c-.816-.608-1.632-.933-2.461-.933-.933 0-1.477.479-1.477 1.075v.026c0 .699.415 1.011 2.164 1.425 1.917.467 2.901 1.153 2.901 2.656v.025c0 1.697-1.334 2.708-3.238 2.708a5.577 5.577 0 0 1-3.783-1.45zM489.728 413.689v-5.221h1.593v5.156c0 1.684.868 2.578 2.293 2.578 1.412 0 2.28-.843 2.28-2.514v-5.221h1.593v5.144c0 2.707-1.529 4.067-3.899 4.067-2.358.002-3.86-1.359-3.86-3.989zM500.481 408.469h1.697l2.759 4.288 2.759-4.288h1.697v9.068H507.8v-6.503l-2.863 4.274h-.052l-2.837-4.249v6.478h-1.567v-9.068zM512.531 408.469h6.723v1.425h-5.13v2.358h4.547v1.425h-4.547v2.436h5.195v1.425h-6.788v-9.069zM522.015 408.469h4.042c1.141 0 2.034.337 2.617.907.479.492.751 1.166.751 1.956v.025c0 1.49-.894 2.384-2.15 2.747l2.449 3.433h-1.891l-2.229-3.161h-1.995v3.161h-1.593v-9.068zm3.925 4.495c1.14 0 1.865-.596 1.865-1.516v-.025c0-.972-.699-1.503-1.878-1.503h-2.319v3.044h2.332zM480.58 423.952h1.477l3.99 9.133h-1.684l-.919-2.189h-4.288l-.933 2.189h-1.633l3.99-9.133zm2.28 5.531l-1.567-3.627-1.555 3.627h3.122zM488.406 424.017h3.575c2.125 0 3.446 1.205 3.446 3.031v.026c0 2.033-1.632 3.096-3.627 3.096h-1.801v2.915h-1.593v-9.068zm3.446 4.715c1.205 0 1.957-.674 1.957-1.619v-.026c0-1.062-.765-1.619-1.957-1.619h-1.853v3.265h1.853zM497.864 424.017h3.575c2.125 0 3.446 1.205 3.446 3.031v.026c0 2.033-1.632 3.096-3.627 3.096h-1.801v2.915h-1.593v-9.068zm3.446 4.715c1.205 0 1.957-.674 1.957-1.619v-.026c0-1.062-.765-1.619-1.957-1.619h-1.853v3.265h1.853z"/></g></g><g><path class="st8" d="M275.193 124.839h2v36.277h-2z"/><path class="st8" d="M273.201 160.241l2.992 5.181 2.992-5.181z"/><path transform="rotate(-45.001 178.078 143.61)" class="st8" d="M177.079 125.47h2v36.277h-2z"/><path class="st8" d="M188.17 157.931l5.78 1.548-1.549-5.779z"/><g><path transform="rotate(-45.001 374.307 143.613)" class="st8" d="M356.168 142.608h36.278v2h-36.278z"/><path class="st8" d="M359.984 153.7l-1.548 5.779 5.779-1.548z"/></g></g><g><path class="st8" d="M275.193 316.966h2v36.277h-2z"/><path class="st8" d="M273.201 352.368l2.992 5.181 2.992-5.181z"/></g><g><path transform="rotate(-45.001 181.12 335.738)" class="st8" d="M162.985 334.735h36.277v2h-36.277z"/><path class="st8" d="M166.801 345.826l-1.548 5.779 5.779-1.548z"/></g><g><path transform="rotate(-45.001 371.266 335.743)" class="st8" d="M370.262 317.596h2v36.277h-2z"/><path class="st8" d="M385.585 345.826l1.548 5.779-5.779-1.548z"/></g></svg>